<svg width="1000" height="562.5" viewBox="0 0 1000 562.5" fill="none" xmlns="http://www.w3.org/2000/svg">
  <style>
    @font-face {
      font-family: 'JetBrainsMono Nerd Font';
      src: url('https://github.com/ryanoasis/nerd-fonts/raw/master/patched-fonts/JetBrainsMono/Ligatures/Regular/complete/JetBrains%20Mono%20Regular%20Nerd%20Font%20Complete.ttf');
    }
    .main-text { font-family: 'JetBrainsMono Nerd Font', 'JetBrains Mono', monospace; font-size: 24px; fill: #ffffff; }
    .bold-text { font-family: 'JetBrainsMono Nerd Font', 'JetBrains Mono', monospace; font-weight: bold; font-size: 24px; fill: #ffffff; }
    .header-text { font-family: 'JetBrainsMono Nerd Font', 'JetBrains Mono', monospace; font-weight: bold; font-size: 26px; fill: #ffffff; }
  </style>
  <defs>
    <linearGradient id="paint0_linear" x1="0" y1="281" x2="1000" y2="281" gradientUnits="userSpaceOnUse">
      <stop stop-color="#00F5FF"/>
      <stop offset="0.5" stop-color="#BF00FF"/>
      <stop offset="1" stop-color="#FF00FF"/>
    </linearGradient>
  </defs>

  <rect x="20" y="20" width="960" height="522.5" rx="20" stroke="url(#paint0_linear)" stroke-width="4"/>
  <rect x="22" y="22" width="956" height="518.5" rx="18" fill="#0D1117"/>

  <rect x="22" y="22" width="956" height="80" rx="18" fill="#161B22"/>
  <rect x="400" y="37" width="300" height="50" rx="15" fill="#2D333B"/>
  <text x="550" y="70" text-anchor="middle" class="header-text">TSURUMARU TSUYOSHI</text>

  <text x="60" y="140" class="main-text">🧑‍💻</text>
  <text x="100" y="140" class="bold-text">username</text>
  <rect x="300" y="110" width="160" height="50" rx="10" fill="#2D333B"/>
  <text x="380" y="145" text-anchor="middle" class="main-text">tsuyoshi64</text>

  <text x="60" y="200" class="main-text">🎯</text>
  <text x="100" y="200" class="bold-text">goal</text>
  <text x="300" y="200" class="main-text">build things that actually work</text>

  <text x="60" y="260" class="main-text">🪶</text>
  <text x="100" y="260" class="bold-text">editors</text>
  <text x="300" y="260" class="main-text">Zed (primary) + neovim (whenever I'm bored and miss it)</text>

  <text x="60" y="320" class="main-text">⚙️</text>
  <text x="100" y="320" class="bold-text">languages</text>
  <text x="300" y="320" class="main-text">Python / Go / C / C++ (sometimes)</text>

  <line x1="280" y1="102" x2="280" y2="350" stroke="#2D333B" stroke-width="2"/>
  <line x1="22" y1="170" x2="978" y2="170" stroke="#2D333B" stroke-width="2"/>
  <line x1="22" y1="230" x2="978" y2="230" stroke="#2D333B" stroke-width="2"/>
  <line x1="22" y1="290" x2="978" y2="290" stroke="#2D333B" stroke-width="2"/>
  <line x1="22" y1="350" x2="978" y2="350" stroke="#2D333B" stroke-width="2"/>
</svg>
