<svg width="1000" height="400" viewBox="0 0 1000 400" fill="none" xmlns="http://www.w3.org/2000/svg">
  <style>
    .main-text { font-family: 'JetBrains Mono', Consolas, 'Fira Code', monospace; font-size: 18px; fill: #c9d1d9; }
    .bold-text { font-family: 'JetBrains Mono', Consolas, 'Fira Code', monospace; font-weight: bold; font-size: 18px; fill: #ffffff; }
    .header-text { font-family: 'JetBrains Mono', Consolas, 'Fira Code', monospace; font-weight: bold; font-size: 22px; fill: #ffffff; }
  </style>
  <defs>
    <linearGradient id="paint0_linear" x1="0" y1="200" x2="1000" y2="200" gradientUnits="userSpaceOnUse">
      <stop stop-color="#00F5FF"/>
      <stop offset="0.5" stop-color="#BF00FF"/>
      <stop offset="1" stop-color="#FF00FF"/>
    </linearGradient>
  </defs>

  <rect x="10" y="10" width="980" height="380" rx="15" stroke="url(#paint0_linear)" stroke-width="3"/>
  <rect x="12" y="12" width="976" height="376" rx="13" fill="#0D1117"/>

  <rect x="12" y="12" width="976" height="60" rx="13" fill="#161B22"/>
  <rect x="12" y="42" width="976" height="30" fill="#161B22"/>
  <line x1="12" y1="72" x2="988" y2="72" stroke="#2D333B" stroke-width="2"/>

  <rect x="350" y="22" width="300" height="36" rx="8" fill="#2D333B"/>
  <text x="500" y="47" text-anchor="middle" class="header-text">TSURUMARU TSUYOSHI</text>

  <line x1="260" y1="72" x2="260" y2="388" stroke="#2D333B" stroke-width="2"/>

  <line x1="12" y1="151" x2="988" y2="151" stroke="#2D333B" stroke-width="2"/>
  <line x1="12" y1="230" x2="988" y2="230" stroke="#2D333B" stroke-width="2"/>
  <line x1="12" y1="309" x2="988" y2="309" stroke="#2D333B" stroke-width="2"/>

  <text x="40" y="118" class="main-text">🧑‍💻</text>
  <text x="90" y="118" class="bold-text">username</text>
  <rect x="290" y="93" width="130" height="34" rx="6" fill="#2D333B"/>
  <text x="355" y="117" text-anchor="middle" class="bold-text">tsuyoshi64</text>

  <text x="40" y="197" class="main-text">🎯</text>
  <text x="90" y="197" class="bold-text">goal</text>
  <text x="290" y="197" class="main-text">build things that actually work</text>

  <text x="40" y="276" class="main-text">🪶</text>
  <text x="90" y="276" class="bold-text">editors</text>
  <rect x="290" y="251" width="50" height="34" rx="6" fill="#2D333B"/>
  <text x="315" y="275" text-anchor="middle" class="bold-text">Zed</text>
  <text x="350" y="276" class="main-text">(primary) + </text>
  <rect x="490" y="251" width="85" height="34" rx="6" fill="#2D333B"/>
  <text x="532" y="275" text-anchor="middle" class="bold-text">neovim</text>
  <text x="585" y="276" class="main-text">(whenever I'm bored and miss it)</text>

  <text x="40" y="355" class="main-text">⚙️</text>
  <text x="90" y="355" class="bold-text">languages</text>
  <rect x="290" y="330" width="80" height="34" rx="6" fill="#2D333B"/>
  <text x="330" y="354" text-anchor="middle" class="bold-text">Python</text>
  <text x="380" y="355" class="main-text">/</text>
  <rect x="400" y="330" width="40" height="34" rx="6" fill="#2D333B"/>
  <text x="420" y="354" text-anchor="middle" class="bold-text">Go</text>
  <text x="450" y="355" class="main-text">/</text>
  <rect x="470" y="330" width="30" height="34" rx="6" fill="#2D333B"/>
  <text x="485" y="354" text-anchor="middle" class="bold-text">C</text>
  <text x="510" y="355" class="main-text">/</text>
  <rect x="530" y="330" width="50" height="34" rx="6" fill="#2D333B"/>
  <text x="555" y="354" text-anchor="middle" class="bold-text">C++</text>
  <text x="590" y="355" class="main-text">(sometimes)</text>
</svg>
